<?xml version="1.0" standalone="no"?>
<svg xmlns="http://www.w3.org/2000/svg" width="4096" height="4096" xmlns:xlink="http://www.w3.org/1999/xlink" viewBox="0 0 4096 4096"><svg xmlns="http://www.w3.org/2000/svg" style="--tc: white; --fc: black; --bc: #ffffff;" viewBox="0 0 320 320" fill="var(--bc, transparent)" id="frame">
  <defs>
    <rect id="settings" data-txt="t1" data-font="28" data-txt-width="280" data-scale="0.78" data-x="0" data-y="20"/>
  </defs>
  <rect x="20" y="5" width="280" height="310" rx="8" stroke="var(--fc, black)" stroke-width="10"/>
  <svg x="20" y="5" width="280" height="45">
    <rect width="100%" height="45" rx="1" fill="var(--fc, black)"/>
    <text id="t1" x="50%" y="55%" dominant-baseline="middle" fill="var(--tc, white)" text-anchor="middle" lengthAdjust="spacing" font-family="Tahoma" font-size="27" letter-spacing="1">QRCODE</text>
  </svg>
</svg><defs style="transform: scale(0.78) translate(577.641px, 905.846px);"><clipPath id="clip-path-background-color-34"><rect x="0" y="0" width="4096" height="4096"/></clipPath><clipPath id="clip-path-dot-color-34"><circle cx="1348" cy="88" r="70" transform="rotate(0,1348,88)"/><path d="M 1698 18v 140h 70a 70 70, 0, 0, 0, 0 -140" transform="rotate(180,1768,88)"/><path d="M 1838 18v 140h 140a 140 140, 0, 0, 0, -140 -140" transform="rotate(0,1908,88)"/><circle cx="2328" cy="88" r="70" transform="rotate(0,2328,88)"/><path d="M 1138 158v 140h 70a 70 70, 0, 0, 0, 0 -140" transform="rotate(-90,1208,228)"/><circle cx="1488" cy="228" r="70" transform="rotate(0,1488,228)"/><rect x="1838" y="158" width="140" height="140" transform="rotate(0,1908,228)"/><path d="M 2398 158v 140h 70a 70 70, 0, 0, 0, 0 -140" transform="rotate(180,2468,228)"/><path d="M 2538 158v 140h 70a 70 70, 0, 0, 0, 0 -140" transform="rotate(0,2608,228)"/><path d="M 1138 298v 140h 70a 70 70, 0, 0, 0, 0 -140" transform="rotate(90,1208,368)"/><path d="M 1698 298v 140h 140a 140 140, 0, 0, 0, -140 -140" transform="rotate(-90,1768,368)"/><rect x="1838" y="298" width="140" height="140" transform="rotate(0,1908,368)"/><rect x="1978" y="298" width="140" height="140" transform="rotate(0,2048,368)"/><path d="M 2118 298v 140h 140a 140 140, 0, 0, 0, -140 -140" transform="rotate(0,2188,368)"/><circle cx="2748" cy="368" r="70" transform="rotate(0,2748,368)"/><path d="M 1558 438v 140h 140a 140 140, 0, 0, 0, -140 -140" transform="rotate(-90,1628,508)"/><path d="M 1698 438v 140h 140a 140 140, 0, 0, 0, -140 -140" transform="rotate(90,1768,508)"/><rect x="1978" y="438" width="140" height="140" transform="rotate(0,2048,508)"/><rect x="2118" y="438" width="140" height="140" transform="rotate(0,2188,508)"/><path d="M 2398 438v 140h 70a 70 70, 0, 0, 0, 0 -140" transform="rotate(180,2468,508)"/><path d="M 2538 438v 140h 70a 70 70, 0, 0, 0, 0 -140" transform="rotate(0,2608,508)"/><circle cx="2888" cy="508" r="70" transform="rotate(0,2888,508)"/><circle cx="1348" cy="648" r="70" transform="rotate(0,1348,648)"/><rect x="1558" y="578" width="140" height="140" transform="rotate(0,1628,648)"/><path d="M 1838 578v 140h 70a 70 70, 0, 0, 0, 0 -140" transform="rotate(180,1908,648)"/><rect x="1978" y="578" width="140" height="140" transform="rotate(0,2048,648)"/><path d="M 2118 578v 140h 140a 140 140, 0, 0, 0, -140 -140" transform="rotate(90,2188,648)"/><path d="M 2678 578v 140h 70a 70 70, 0, 0, 0, 0 -140" transform="rotate(-90,2748,648)"/><path d="M 1558 718v 140h 70a 70 70, 0, 0, 0, 0 -140" transform="rotate(90,1628,788)"/><path d="M 2398 718v 140h 70a 70 70, 0, 0, 0, 0 -140" transform="rotate(180,2468,788)"/><rect x="2538" y="718" width="140" height="140" transform="rotate(0,2608,788)"/><rect x="2678" y="718" width="140" height="140" transform="rotate(0,2748,788)"/><path d="M 2818 718v 140h 140a 140 140, 0, 0, 0, -140 -140" transform="rotate(0,2888,788)"/><circle cx="1208" cy="928" r="70" transform="rotate(0,1208,928)"/><circle cx="1488" cy="928" r="70" transform="rotate(0,1488,928)"/><path d="M 1698 858v 140h 70a 70 70, 0, 0, 0, 0 -140" transform="rotate(-90,1768,928)"/><circle cx="2048" cy="928" r="70" transform="rotate(0,2048,928)"/><circle cx="2328" cy="928" r="70" transform="rotate(0,2328,928)"/><path d="M 2538 858v 140h 70a 70 70, 0, 0, 0, 0 -140" transform="rotate(90,2608,928)"/><path d="M 2818 858v 140h 70a 70 70, 0, 0, 0, 0 -140" transform="rotate(90,2888,928)"/><path d="M 1558 998v 140h 70a 70 70, 0, 0, 0, 0 -140" transform="rotate(180,1628,1068)"/><rect x="1698" y="998" width="140" height="140" transform="rotate(0,1768,1068)"/><path d="M 1838 998v 140h 140a 140 140, 0, 0, 0, -140 -140" transform="rotate(0,1908,1068)"/><path d="M 158 1138v 140h 140a 140 140, 0, 0, 0, -140 -140" transform="rotate(-90,228,1208)"/><rect x="298" y="1138" width="140" height="140" transform="rotate(0,368,1208)"/><path d="M 438 1138v 140h 70a 70 70, 0, 0, 0, 0 -140" transform="rotate(0,508,1208)"/><path d="M 718 1138v 140h 70a 70 70, 0, 0, 0, 0 -140" transform="rotate(180,788,1208)"/><path d="M 858 1138v 140h 70a 70 70, 0, 0, 0, 0 -140" transform="rotate(0,928,1208)"/><path d="M 1278 1138v 140h 140a 140 140, 0, 0, 0, -140 -140" transform="rotate(-90,1348,1208)"/><path d="M 1418 1138v 140h 140a 140 140, 0, 0, 0, -140 -140" transform="rotate(0,1488,1208)"/><path d="M 1698 1138v 140h 140a 140 140, 0, 0, 0, -140 -140" transform="rotate(180,1768,1208)"/><rect x="1838" y="1138" width="140" height="140" transform="rotate(0,1908,1208)"/><path d="M 2118 1138v 140h 70a 70 70, 0, 0, 0, 0 -140" transform="rotate(180,2188,1208)"/><path d="M 2258 1138v 140h 140a 140 140, 0, 0, 0, -140 -140" transform="rotate(0,2328,1208)"/><path d="M 2538 1138v 140h 140a 140 140, 0, 0, 0, -140 -140" transform="rotate(-90,2608,1208)"/><path d="M 2678 1138v 140h 70a 70 70, 0, 0, 0, 0 -140" transform="rotate(0,2748,1208)"/><path d="M 3658 1138v 140h 140a 140 140, 0, 0, 0, -140 -140" transform="rotate(-90,3728,1208)"/><path d="M 3798 1138v 140h 70a 70 70, 0, 0, 0, 0 -140" transform="rotate(0,3868,1208)"/><rect x="158" y="1278" width="140" height="140" transform="rotate(0,228,1348)"/><rect x="1278" y="1278" width="140" height="140" transform="rotate(0,1348,1348)"/><path d="M 1418 1278v 140h 140a 140 140, 0, 0, 0, -140 -140" transform="rotate(90,1488,1348)"/><path d="M 1838 1278v 140h 70a 70 70, 0, 0, 0, 0 -140" transform="rotate(90,1908,1348)"/><path d="M 2258 1278v 140h 140a 140 140, 0, 0, 0, -140 -140" transform="rotate(180,2328,1348)"/><rect x="2398" y="1278" width="140" height="140" transform="rotate(0,2468,1348)"/><rect x="2538" y="1278" width="140" height="140" transform="rotate(0,2608,1348)"/><path d="M 2818 1278v 140h 140a 140 140, 0, 0, 0, -140 -140" transform="rotate(-90,2888,1348)"/><path d="M 2958 1278v 140h 70a 70 70, 0, 0, 0, 0 -140" transform="rotate(0,3028,1348)"/><path d="M 3238 1278v 140h 70a 70 70, 0, 0, 0, 0 -140" transform="rotate(180,3308,1348)"/><rect x="3378" y="1278" width="140" height="140" transform="rotate(0,3448,1348)"/><rect x="3518" y="1278" width="140" height="140" transform="rotate(0,3588,1348)"/><rect x="3658" y="1278" width="140" height="140" transform="rotate(0,3728,1348)"/><circle cx="4008" cy="1348" r="70" transform="rotate(0,4008,1348)"/><rect x="158" y="1418" width="140" height="140" transform="rotate(0,228,1488)"/><path d="M 438 1418v 140h 70a 70 70, 0, 0, 0, 0 -140" transform="rotate(180,508,1488)"/><rect x="578" y="1418" width="140" height="140" transform="rotate(0,648,1488)"/><rect x="718" y="1418" width="140" height="140" transform="rotate(0,788,1488)"/><rect x="858" y="1418" width="140" height="140" transform="rotate(0,928,1488)"/><rect x="998" y="1418" width="140" height="140" transform="rotate(0,1068,1488)"/><rect x="1138" y="1418" width="140" height="140" transform="rotate(0,1208,1488)"/><rect x="1278" y="1418" width="140" height="140" transform="rotate(0,1348,1488)"/><path d="M 1698 1418v 140h 70a 70 70, 0, 0, 0, 0 -140" transform="rotate(-90,1768,1488)"/><path d="M 1978 1418v 140h 70a 70 70, 0, 0, 0, 0 -140" transform="rotate(-90,2048,1488)"/><path d="M 2398 1418v 140h 140a 140 140, 0, 0, 0, -140 -140" transform="rotate(180,2468,1488)"/><rect x="2538" y="1418" width="140" height="140" transform="rotate(0,2608,1488)"/><rect x="2678" y="1418" width="140" height="140" transform="rotate(0,2748,1488)"/><rect x="2818" y="1418" width="140" height="140" transform="rotate(0,2888,1488)"/><circle cx="3168" cy="1488" r="70" transform="rotate(0,3168,1488)"/><rect x="3518" y="1418" width="140" height="140" transform="rotate(0,3588,1488)"/><rect x="3658" y="1418" width="140" height="140" transform="rotate(0,3728,1488)"/><path d="M 3798 1418v 140h 70a 70 70, 0, 0, 0, 0 -140" transform="rotate(0,3868,1488)"/><path d="M 158 1558v 140h 70a 70 70, 0, 0, 0, 0 -140" transform="rotate(90,228,1628)"/><rect x="1138" y="1558" width="140" height="140" transform="rotate(0,1208,1628)"/><path d="M 1278 1558v 140h 140a 140 140, 0, 0, 0, -140 -140" transform="rotate(90,1348,1628)"/><rect x="1698" y="1558" width="140" height="140" transform="rotate(0,1768,1628)"/><path d="M 1978 1558v 140h 70a 70 70, 0, 0, 0, 0 -140" transform="rotate(90,2048,1628)"/><path d="M 2538 1558v 140h 70a 70 70, 0, 0, 0, 0 -140" transform="rotate(90,2608,1628)"/><path d="M 2818 1558v 140h 70a 70 70, 0, 0, 0, 0 -140" transform="rotate(90,2888,1628)"/><path d="M 3238 1558v 140h 70a 70 70, 0, 0, 0, 0 -140" transform="rotate(-90,3308,1628)"/><path d="M 3518 1558v 140h 70a 70 70, 0, 0, 0, 0 -140" transform="rotate(90,3588,1628)"/><path d="M 3938 1558v 140h 70a 70 70, 0, 0, 0, 0 -140" transform="rotate(-90,4008,1628)"/><path d="M 578 1698v 140h 70a 70 70, 0, 0, 0, 0 -140" transform="rotate(180,648,1768)"/><rect x="718" y="1698" width="140" height="140" transform="rotate(0,788,1768)"/><path d="M 858 1698v 140h 70a 70 70, 0, 0, 0, 0 -140" transform="rotate(0,928,1768)"/><path d="M 1138 1698v 140h 70a 70 70, 0, 0, 0, 0 -140" transform="rotate(90,1208,1768)"/><path d="M 1558 1698v 140h 70a 70 70, 0, 0, 0, 0 -140" transform="rotate(180,1628,1768)"/><rect x="1698" y="1698" width="140" height="140" transform="rotate(0,1768,1768)"/><path d="M 1838 1698v 140h 70a 70 70, 0, 0, 0, 0 -140" transform="rotate(0,1908,1768)"/><path d="M 2118 1698v 140h 70a 70 70, 0, 0, 0, 0 -140" transform="rotate(-90,2188,1768)"/><path d="M 2398 1698v 140h 70a 70 70, 0, 0, 0, 0 -140" transform="rotate(-90,2468,1768)"/><path d="M 2678 1698v 140h 70a 70 70, 0, 0, 0, 0 -140" transform="rotate(-90,2748,1768)"/><circle cx="3028" cy="1768" r="70" transform="rotate(0,3028,1768)"/><rect x="3238" y="1698" width="140" height="140" transform="rotate(0,3308,1768)"/><path d="M 3658 1698v 140h 140a 140 140, 0, 0, 0, -140 -140" transform="rotate(-90,3728,1768)"/><rect x="3798" y="1698" width="140" height="140" transform="rotate(0,3868,1768)"/><rect x="3938" y="1698" width="140" height="140" transform="rotate(0,4008,1768)"/><circle cx="88" cy="1908" r="70" transform="rotate(0,88,1908)"/><path d="M 298 1838v 140h 70a 70 70, 0, 0, 0, 0 -140" transform="rotate(180,368,1908)"/><path d="M 438 1838v 140h 140a 140 140, 0, 0, 0, -140 -140" transform="rotate(0,508,1908)"/><path d="M 998 1838v 140h 70a 70 70, 0, 0, 0, 0 -140" transform="rotate(-90,1068,1908)"/><circle cx="1348" cy="1908" r="70" transform="rotate(0,1348,1908)"/><rect x="1698" y="1838" width="140" height="140" transform="rotate(0,1768,1908)"/><path d="M 1978 1838v 140h 140a 140 140, 0, 0, 0, -140 -140" transform="rotate(-90,2048,1908)"/><path d="M 2118 1838v 140h 140a 140 140, 0, 0, 0, -140 -140" transform="rotate(90,2188,1908)"/><path d="M 2398 1838v 140h 140a 140 140, 0, 0, 0, -140 -140" transform="rotate(180,2468,1908)"/><rect x="2538" y="1838" width="140" height="140" transform="rotate(0,2608,1908)"/><rect x="2678" y="1838" width="140" height="140" transform="rotate(0,2748,1908)"/><path d="M 3098 1838v 140h 70a 70 70, 0, 0, 0, 0 -140" transform="rotate(180,3168,1908)"/><rect x="3238" y="1838" width="140" height="140" transform="rotate(0,3308,1908)"/><path d="M 3518 1838v 140h 140a 140 140, 0, 0, 0, -140 -140" transform="rotate(-90,3588,1908)"/><path d="M 3658 1838v 140h 140a 140 140, 0, 0, 0, -140 -140" transform="rotate(90,3728,1908)"/><rect x="3938" y="1838" width="140" height="140" transform="rotate(0,4008,1908)"/><path d="M 158 1978v 140h 70a 70 70, 0, 0, 0, 0 -140" transform="rotate(-90,228,2048)"/><rect x="438" y="1978" width="140" height="140" transform="rotate(0,508,2048)"/><rect x="578" y="1978" width="140" height="140" transform="rotate(0,648,2048)"/><rect x="718" y="1978" width="140" height="140" transform="rotate(0,788,2048)"/><rect x="858" y="1978" width="140" height="140" transform="rotate(0,928,2048)"/><rect x="998" y="1978" width="140" height="140" transform="rotate(0,1068,2048)"/><path d="M 1138 1978v 140h 70a 70 70, 0, 0, 0, 0 -140" transform="rotate(0,1208,2048)"/><path d="M 1418 1978v 140h 70a 70 70, 0, 0, 0, 0 -140" transform="rotate(180,1488,2048)"/><rect x="1558" y="1978" width="140" height="140" transform="rotate(0,1628,2048)"/><rect x="1698" y="1978" width="140" height="140" transform="rotate(0,1768,2048)"/><rect x="1838" y="1978" width="140" height="140" transform="rotate(0,1908,2048)"/><rect x="1978" y="1978" width="140" height="140" transform="rotate(0,2048,2048)"/><path d="M 2258 1978v 140h 70a 70 70, 0, 0, 0, 0 -140" transform="rotate(-90,2328,2048)"/><rect x="2678" y="1978" width="140" height="140" transform="rotate(0,2748,2048)"/><path d="M 2818 1978v 140h 140a 140 140, 0, 0, 0, -140 -140" transform="rotate(0,2888,2048)"/><path d="M 3238 1978v 140h 140a 140 140, 0, 0, 0, -140 -140" transform="rotate(180,3308,2048)"/><rect x="3378" y="1978" width="140" height="140" transform="rotate(0,3448,2048)"/><rect x="3518" y="1978" width="140" height="140" transform="rotate(0,3588,2048)"/><path d="M 3798 1978v 140h 70a 70 70, 0, 0, 0, 0 -140" transform="rotate(180,3868,2048)"/><rect x="3938" y="1978" width="140" height="140" transform="rotate(0,4008,2048)"/><path d="M 158 2118v 140h 70a 70 70, 0, 0, 0, 0 -140" transform="rotate(90,228,2188)"/><rect x="438" y="2118" width="140" height="140" transform="rotate(0,508,2188)"/><rect x="578" y="2118" width="140" height="140" transform="rotate(0,648,2188)"/><rect x="998" y="2118" width="140" height="140" transform="rotate(0,1068,2188)"/><rect x="1558" y="2118" width="140" height="140" transform="rotate(0,1628,2188)"/><path d="M 1978 2118v 140h 140a 140 140, 0, 0, 0, -140 -140" transform="rotate(180,2048,2188)"/><rect x="2118" y="2118" width="140" height="140" transform="rotate(0,2188,2188)"/><path d="M 2258 2118v 140h 140a 140 140, 0, 0, 0, -140 -140" transform="rotate(90,2328,2188)"/><path d="M 2678 2118v 140h 140a 140 140, 0, 0, 0, -140 -140" transform="rotate(180,2748,2188)"/><rect x="2818" y="2118" width="140" height="140" transform="rotate(0,2888,2188)"/><path d="M 3378 2118v 140h 140a 140 140, 0, 0, 0, -140 -140" transform="rotate(180,3448,2188)"/><rect x="3518" y="2118" width="140" height="140" transform="rotate(0,3588,2188)"/><rect x="3938" y="2118" width="140" height="140" transform="rotate(0,4008,2188)"/><path d="M 298 2258v 140h 140a 140 140, 0, 0, 0, -140 -140" transform="rotate(-90,368,2328)"/><rect x="438" y="2258" width="140" height="140" transform="rotate(0,508,2328)"/><path d="M 578 2258v 140h 140a 140 140, 0, 0, 0, -140 -140" transform="rotate(90,648,2328)"/><path d="M 858 2258v 140h 70a 70 70, 0, 0, 0, 0 -140" transform="rotate(180,928,2328)"/><path d="M 998 2258v 140h 140a 140 140, 0, 0, 0, -140 -140" transform="rotate(90,1068,2328)"/><circle cx="1348" cy="2328" r="70" transform="rotate(0,1348,2328)"/><path d="M 1558 2258v 140h 70a 70 70, 0, 0, 0, 0 -140" transform="rotate(90,1628,2328)"/><circle cx="2468" cy="2328" r="70" transform="rotate(0,2468,2328)"/><path d="M 2818 2258v 140h 140a 140 140, 0, 0, 0, -140 -140" transform="rotate(180,2888,2328)"/><path d="M 2958 2258v 140h 70a 70 70, 0, 0, 0, 0 -140" transform="rotate(0,3028,2328)"/><path d="M 3518 2258v 140h 70a 70 70, 0, 0, 0, 0 -140" transform="rotate(90,3588,2328)"/><path d="M 3798 2258v 140h 70a 70 70, 0, 0, 0, 0 -140" transform="rotate(180,3868,2328)"/><path d="M 3938 2258v 140h 140a 140 140, 0, 0, 0, -140 -140" transform="rotate(90,4008,2328)"/><path d="M 158 2398v 140h 70a 70 70, 0, 0, 0, 0 -140" transform="rotate(180,228,2468)"/><rect x="298" y="2398" width="140" height="140" transform="rotate(0,368,2468)"/><rect x="438" y="2398" width="140" height="140" transform="rotate(0,508,2468)"/><path d="M 718 2398v 140h 70a 70 70, 0, 0, 0, 0 -140" transform="rotate(-90,788,2468)"/><circle cx="1208" cy="2468" r="70" transform="rotate(0,1208,2468)"/><circle cx="1768" cy="2468" r="70" transform="rotate(0,1768,2468)"/><path d="M 2538 2398v 140h 140a 140 140, 0, 0, 0, -140 -140" transform="rotate(-90,2608,2468)"/><path d="M 2678 2398v 140h 70a 70 70, 0, 0, 0, 0 -140" transform="rotate(0,2748,2468)"/><path d="M 3098 2398v 140h 140a 140 140, 0, 0, 0, -140 -140" transform="rotate(-90,3168,2468)"/><path d="M 3238 2398v 140h 140a 140 140, 0, 0, 0, -140 -140" transform="rotate(0,3308,2468)"/><path d="M 3658 2398v 140h 70a 70 70, 0, 0, 0, 0 -140" transform="rotate(-90,3728,2468)"/><circle cx="88" cy="2608" r="70" transform="rotate(0,88,2608)"/><rect x="298" y="2538" width="140" height="140" transform="rotate(0,368,2608)"/><rect x="438" y="2538" width="140" height="140" transform="rotate(0,508,2608)"/><rect x="578" y="2538" width="140" height="140" transform="rotate(0,648,2608)"/><rect x="718" y="2538" width="140" height="140" transform="rotate(0,788,2608)"/><path d="M 858 2538v 140h 70a 70 70, 0, 0, 0, 0 -140" transform="rotate(0,928,2608)"/><path d="M 1558 2538v 140h 70a 70 70, 0, 0, 0, 0 -140" transform="rotate(-90,1628,2608)"/><path d="M 1838 2538v 140h 140a 140 140, 0, 0, 0, -140 -140" transform="rotate(-90,1908,2608)"/><path d="M 1978 2538v 140h 140a 140 140, 0, 0, 0, -140 -140" transform="rotate(0,2048,2608)"/><rect x="2538" y="2538" width="140" height="140" transform="rotate(0,2608,2608)"/><circle cx="2888" cy="2608" r="70" transform="rotate(0,2888,2608)"/><rect x="3098" y="2538" width="140" height="140" transform="rotate(0,3168,2608)"/><rect x="3238" y="2538" width="140" height="140" transform="rotate(0,3308,2608)"/><rect x="3378" y="2538" width="140" height="140" transform="rotate(0,3448,2608)"/><rect x="3518" y="2538" width="140" height="140" transform="rotate(0,3588,2608)"/><rect x="3658" y="2538" width="140" height="140" transform="rotate(0,3728,2608)"/><path d="M 298 2678v 140h 140a 140 140, 0, 0, 0, -140 -140" transform="rotate(180,368,2748)"/><rect x="438" y="2678" width="140" height="140" transform="rotate(0,508,2748)"/><rect x="578" y="2678" width="140" height="140" transform="rotate(0,648,2748)"/><rect x="718" y="2678" width="140" height="140" transform="rotate(0,788,2748)"/><path d="M 1138 2678v 140h 140a 140 140, 0, 0, 0, -140 -140" transform="rotate(-90,1208,2748)"/><rect x="1278" y="2678" width="140" height="140" transform="rotate(0,1348,2748)"/><rect x="1418" y="2678" width="140" height="140" transform="rotate(0,1488,2748)"/><path d="M 1558 2678v 140h 140a 140 140, 0, 0, 0, -140 -140" transform="rotate(90,1628,2748)"/><rect x="1838" y="2678" width="140" height="140" transform="rotate(0,1908,2748)"/><rect x="1978" y="2678" width="140" height="140" transform="rotate(0,2048,2748)"/><rect x="2118" y="2678" width="140" height="140" transform="rotate(0,2188,2748)"/><rect x="2258" y="2678" width="140" height="140" transform="rotate(0,2328,2748)"/><rect x="2398" y="2678" width="140" height="140" transform="rotate(0,2468,2748)"/><rect x="2538" y="2678" width="140" height="140" transform="rotate(0,2608,2748)"/><path d="M 2678 2678v 140h 140a 140 140, 0, 0, 0, -140 -140" transform="rotate(0,2748,2748)"/><path d="M 2958 2678v 140h 140a 140 140, 0, 0, 0, -140 -140" transform="rotate(-90,3028,2748)"/><rect x="3098" y="2678" width="140" height="140" transform="rotate(0,3168,2748)"/><rect x="3378" y="2678" width="140" height="140" transform="rotate(0,3448,2748)"/><rect x="3518" y="2678" width="140" height="140" transform="rotate(0,3588,2748)"/><rect x="3658" y="2678" width="140" height="140" transform="rotate(0,3728,2748)"/><path d="M 3798 2678v 140h 70a 70 70, 0, 0, 0, 0 -140" transform="rotate(0,3868,2748)"/><circle cx="228" cy="2888" r="70" transform="rotate(0,228,2888)"/><path d="M 438 2818v 140h 140a 140 140, 0, 0, 0, -140 -140" transform="rotate(180,508,2888)"/><rect x="578" y="2818" width="140" height="140" transform="rotate(0,648,2888)"/><rect x="718" y="2818" width="140" height="140" transform="rotate(0,788,2888)"/><path d="M 858 2818v 140h 70a 70 70, 0, 0, 0, 0 -140" transform="rotate(0,928,2888)"/><rect x="1138" y="2818" width="140" height="140" transform="rotate(0,1208,2888)"/><path d="M 1278 2818v 140h 140a 140 140, 0, 0, 0, -140 -140" transform="rotate(90,1348,2888)"/><path d="M 1698 2818v 140h 70a 70 70, 0, 0, 0, 0 -140" transform="rotate(180,1768,2888)"/><rect x="1838" y="2818" width="140" height="140" transform="rotate(0,1908,2888)"/><rect x="1978" y="2818" width="140" height="140" transform="rotate(0,2048,2888)"/><rect x="2118" y="2818" width="140" height="140" transform="rotate(0,2188,2888)"/><rect x="2258" y="2818" width="140" height="140" transform="rotate(0,2328,2888)"/><rect x="2398" y="2818" width="140" height="140" transform="rotate(0,2468,2888)"/><rect x="2538" y="2818" width="140" height="140" transform="rotate(0,2608,2888)"/><rect x="2678" y="2818" width="140" height="140" transform="rotate(0,2748,2888)"/><rect x="2818" y="2818" width="140" height="140" transform="rotate(0,2888,2888)"/><rect x="2958" y="2818" width="140" height="140" transform="rotate(0,3028,2888)"/><rect x="3098" y="2818" width="140" height="140" transform="rotate(0,3168,2888)"/><rect x="3238" y="2818" width="140" height="140" transform="rotate(0,3308,2888)"/><rect x="3378" y="2818" width="140" height="140" transform="rotate(0,3448,2888)"/><path d="M 1138 2958v 140h 70a 70 70, 0, 0, 0, 0 -140" transform="rotate(90,1208,3028)"/><circle cx="1628" cy="3028" r="70" transform="rotate(0,1628,3028)"/><path d="M 2258 2958v 140h 140a 140 140, 0, 0, 0, -140 -140" transform="rotate(180,2328,3028)"/><path d="M 2398 2958v 140h 140a 140 140, 0, 0, 0, -140 -140" transform="rotate(90,2468,3028)"/><rect x="2818" y="2958" width="140" height="140" transform="rotate(0,2888,3028)"/><rect x="3378" y="2958" width="140" height="140" transform="rotate(0,3448,3028)"/><path d="M 3518 2958v 140h 70a 70 70, 0, 0, 0, 0 -140" transform="rotate(0,3588,3028)"/><path d="M 3798 2958v 140h 140a 140 140, 0, 0, 0, -140 -140" transform="rotate(-90,3868,3028)"/><path d="M 3938 2958v 140h 70a 70 70, 0, 0, 0, 0 -140" transform="rotate(0,4008,3028)"/><path d="M 1278 3098v 140h 70a 70 70, 0, 0, 0, 0 -140" transform="rotate(180,1348,3168)"/><path d="M 1418 3098v 140h 70a 70 70, 0, 0, 0, 0 -140" transform="rotate(0,1488,3168)"/><circle cx="1768" cy="3168" r="70" transform="rotate(0,1768,3168)"/><path d="M 2538 3098v 140h 70a 70 70, 0, 0, 0, 0 -140" transform="rotate(180,2608,3168)"/><rect x="2678" y="3098" width="140" height="140" transform="rotate(0,2748,3168)"/><rect x="2818" y="3098" width="140" height="140" transform="rotate(0,2888,3168)"/><circle cx="3168" cy="3168" r="70" transform="rotate(0,3168,3168)"/><rect x="3378" y="3098" width="140" height="140" transform="rotate(0,3448,3168)"/><path d="M 3658 3098v 140h 70a 70 70, 0, 0, 0, 0 -140" transform="rotate(180,3728,3168)"/><rect x="3798" y="3098" width="140" height="140" transform="rotate(0,3868,3168)"/><circle cx="1208" cy="3308" r="70" transform="rotate(0,1208,3308)"/><path d="M 1838 3238v 140h 140a 140 140, 0, 0, 0, -140 -140" transform="rotate(-90,1908,3308)"/><rect x="1978" y="3238" width="140" height="140" transform="rotate(0,2048,3308)"/><path d="M 2118 3238v 140h 70a 70 70, 0, 0, 0, 0 -140" transform="rotate(0,2188,3308)"/><circle cx="2468" cy="3308" r="70" transform="rotate(0,2468,3308)"/><rect x="2818" y="3238" width="140" height="140" transform="rotate(0,2888,3308)"/><rect x="3378" y="3238" width="140" height="140" transform="rotate(0,3448,3308)"/><rect x="3798" y="3238" width="140" height="140" transform="rotate(0,3868,3308)"/><circle cx="1488" cy="3448" r="70" transform="rotate(0,1488,3448)"/><path d="M 1698 3378v 140h 140a 140 140, 0, 0, 0, -140 -140" transform="rotate(-90,1768,3448)"/><rect x="1838" y="3378" width="140" height="140" transform="rotate(0,1908,3448)"/><rect x="1978" y="3378" width="140" height="140" transform="rotate(0,2048,3448)"/><circle cx="2328" cy="3448" r="70" transform="rotate(0,2328,3448)"/><path d="M 2818 3378v 140h 140a 140 140, 0, 0, 0, -140 -140" transform="rotate(180,2888,3448)"/><rect x="2958" y="3378" width="140" height="140" transform="rotate(0,3028,3448)"/><rect x="3098" y="3378" width="140" height="140" transform="rotate(0,3168,3448)"/><rect x="3238" y="3378" width="140" height="140" transform="rotate(0,3308,3448)"/><rect x="3378" y="3378" width="140" height="140" transform="rotate(0,3448,3448)"/><rect x="3518" y="3378" width="140" height="140" transform="rotate(0,3588,3448)"/><rect x="3658" y="3378" width="140" height="140" transform="rotate(0,3728,3448)"/><rect x="3798" y="3378" width="140" height="140" transform="rotate(0,3868,3448)"/><path d="M 1138 3518v 140h 70a 70 70, 0, 0, 0, 0 -140" transform="rotate(-90,1208,3588)"/><path d="M 1558 3518v 140h 70a 70 70, 0, 0, 0, 0 -140" transform="rotate(180,1628,3588)"/><rect x="1698" y="3518" width="140" height="140" transform="rotate(0,1768,3588)"/><rect x="1978" y="3518" width="140" height="140" transform="rotate(0,2048,3588)"/><path d="M 2398 3518v 140h 70a 70 70, 0, 0, 0, 0 -140" transform="rotate(-90,2468,3588)"/><circle cx="2748" cy="3588" r="70" transform="rotate(0,2748,3588)"/><path d="M 3378 3518v 140h 70a 70 70, 0, 0, 0, 0 -140" transform="rotate(90,3448,3588)"/><rect x="3658" y="3518" width="140" height="140" transform="rotate(0,3728,3588)"/><path d="M 3798 3518v 140h 140a 140 140, 0, 0, 0, -140 -140" transform="rotate(90,3868,3588)"/><rect x="1138" y="3658" width="140" height="140" transform="rotate(0,1208,3728)"/><rect x="1698" y="3658" width="140" height="140" transform="rotate(0,1768,3728)"/><path d="M 1978 3658v 140h 70a 70 70, 0, 0, 0, 0 -140" transform="rotate(90,2048,3728)"/><path d="M 2398 3658v 140h 70a 70 70, 0, 0, 0, 0 -140" transform="rotate(90,2468,3728)"/><path d="M 2818 3658v 140h 70a 70 70, 0, 0, 0, 0 -140" transform="rotate(-90,2888,3728)"/><circle cx="3308" cy="3728" r="70" transform="rotate(0,3308,3728)"/><path d="M 3518 3658v 140h 140a 140 140, 0, 0, 0, -140 -140" transform="rotate(-90,3588,3728)"/><path d="M 3658 3658v 140h 140a 140 140, 0, 0, 0, -140 -140" transform="rotate(90,3728,3728)"/><circle cx="4008" cy="3728" r="70" transform="rotate(0,4008,3728)"/><path d="M 1138 3798v 140h 140a 140 140, 0, 0, 0, -140 -140" transform="rotate(180,1208,3868)"/><path d="M 1278 3798v 140h 140a 140 140, 0, 0, 0, -140 -140" transform="rotate(0,1348,3868)"/><path d="M 1558 3798v 140h 70a 70 70, 0, 0, 0, 0 -140" transform="rotate(180,1628,3868)"/><rect x="1698" y="3798" width="140" height="140" transform="rotate(0,1768,3868)"/><path d="M 1838 3798v 140h 70a 70 70, 0, 0, 0, 0 -140" transform="rotate(0,1908,3868)"/><circle cx="2188" cy="3868" r="70" transform="rotate(0,2188,3868)"/><circle cx="2608" cy="3868" r="70" transform="rotate(0,2608,3868)"/><rect x="2818" y="3798" width="140" height="140" transform="rotate(0,2888,3868)"/><path d="M 3378 3798v 140h 70a 70 70, 0, 0, 0, 0 -140" transform="rotate(180,3448,3868)"/><path d="M 3518 3798v 140h 140a 140 140, 0, 0, 0, -140 -140" transform="rotate(90,3588,3868)"/><path d="M 3798 3798v 140h 70a 70 70, 0, 0, 0, 0 -140" transform="rotate(-90,3868,3868)"/><path d="M 1278 3938v 140h 140a 140 140, 0, 0, 0, -140 -140" transform="rotate(180,1348,4008)"/><path d="M 1418 3938v 140h 70a 70 70, 0, 0, 0, 0 -140" transform="rotate(0,1488,4008)"/><path d="M 1698 3938v 140h 70a 70 70, 0, 0, 0, 0 -140" transform="rotate(90,1768,4008)"/><path d="M 2678 3938v 140h 70a 70 70, 0, 0, 0, 0 -140" transform="rotate(180,2748,4008)"/><path d="M 2818 3938v 140h 140a 140 140, 0, 0, 0, -140 -140" transform="rotate(90,2888,4008)"/><circle cx="3308" cy="4008" r="70" transform="rotate(0,3308,4008)"/><path d="M 3798 3938v 140h 70a 70 70, 0, 0, 0, 0 -140" transform="rotate(90,3868,4008)"/></clipPath><clipPath id="clip-path-corners-square-color-0-0-34"><path clip-rule="evenodd" d="M 18 368v 280a 350 350, 0, 0, 0, 350 350h 280a 350 350, 0, 0, 0, 350 -350v -280a 350 350, 0, 0, 0, -350 -350h -280a 350 350, 0, 0, 0, -350 350M 368 158h 280a 210 210, 0, 0, 1, 210 210v 280a 210 210, 0, 0, 1, -210 210h -280a 210 210, 0, 0, 1, -210 -210v -280a 210 210, 0, 0, 1, 210 -210" transform="rotate(0,508,508)"/></clipPath><clipPath id="clip-path-corners-dot-color-0-0-34"><path d="M 298 298v 140h 140a 140 140, 0, 0, 0, -140 -140" transform="rotate(-90,368,368)"/><rect x="438" y="298" width="140" height="140" transform="rotate(0,508,368)"/><path d="M 578 298v 140h 140a 140 140, 0, 0, 0, -140 -140" transform="rotate(0,648,368)"/><rect x="298" y="438" width="140" height="140" transform="rotate(0,368,508)"/><rect x="438" y="438" width="140" height="140" transform="rotate(0,508,508)"/><rect x="578" y="438" width="140" height="140" transform="rotate(0,648,508)"/><path d="M 298 578v 140h 140a 140 140, 0, 0, 0, -140 -140" transform="rotate(180,368,648)"/><rect x="438" y="578" width="140" height="140" transform="rotate(0,508,648)"/><path d="M 578 578v 140h 140a 140 140, 0, 0, 0, -140 -140" transform="rotate(90,648,648)"/></clipPath><clipPath id="clip-path-corners-square-color-1-0-34"><path clip-rule="evenodd" d="M 3098 368v 280a 350 350, 0, 0, 0, 350 350h 280a 350 350, 0, 0, 0, 350 -350v -280a 350 350, 0, 0, 0, -350 -350h -280a 350 350, 0, 0, 0, -350 350M 3448 158h 280a 210 210, 0, 0, 1, 210 210v 280a 210 210, 0, 0, 1, -210 210h -280a 210 210, 0, 0, 1, -210 -210v -280a 210 210, 0, 0, 1, 210 -210" transform="rotate(90,3588,508)"/></clipPath><clipPath id="clip-path-corners-dot-color-1-0-34"><path d="M 3378 298v 140h 140a 140 140, 0, 0, 0, -140 -140" transform="rotate(-90,3448,368)"/><rect x="3518" y="298" width="140" height="140" transform="rotate(0,3588,368)"/><path d="M 3658 298v 140h 140a 140 140, 0, 0, 0, -140 -140" transform="rotate(0,3728,368)"/><rect x="3378" y="438" width="140" height="140" transform="rotate(0,3448,508)"/><rect x="3518" y="438" width="140" height="140" transform="rotate(0,3588,508)"/><rect x="3658" y="438" width="140" height="140" transform="rotate(0,3728,508)"/><path d="M 3378 578v 140h 140a 140 140, 0, 0, 0, -140 -140" transform="rotate(180,3448,648)"/><rect x="3518" y="578" width="140" height="140" transform="rotate(0,3588,648)"/><path d="M 3658 578v 140h 140a 140 140, 0, 0, 0, -140 -140" transform="rotate(90,3728,648)"/></clipPath><clipPath id="clip-path-corners-square-color-0-1-34"><path clip-rule="evenodd" d="M 18 3448v 280a 350 350, 0, 0, 0, 350 350h 280a 350 350, 0, 0, 0, 350 -350v -280a 350 350, 0, 0, 0, -350 -350h -280a 350 350, 0, 0, 0, -350 350M 368 3238h 280a 210 210, 0, 0, 1, 210 210v 280a 210 210, 0, 0, 1, -210 210h -280a 210 210, 0, 0, 1, -210 -210v -280a 210 210, 0, 0, 1, 210 -210" transform="rotate(-90,508,3588)"/></clipPath><clipPath id="clip-path-corners-dot-color-0-1-34"><path d="M 298 3378v 140h 140a 140 140, 0, 0, 0, -140 -140" transform="rotate(-90,368,3448)"/><rect x="438" y="3378" width="140" height="140" transform="rotate(0,508,3448)"/><path d="M 578 3378v 140h 140a 140 140, 0, 0, 0, -140 -140" transform="rotate(0,648,3448)"/><rect x="298" y="3518" width="140" height="140" transform="rotate(0,368,3588)"/><rect x="438" y="3518" width="140" height="140" transform="rotate(0,508,3588)"/><rect x="578" y="3518" width="140" height="140" transform="rotate(0,648,3588)"/><path d="M 298 3658v 140h 140a 140 140, 0, 0, 0, -140 -140" transform="rotate(180,368,3728)"/><rect x="438" y="3658" width="140" height="140" transform="rotate(0,508,3728)"/><path d="M 578 3658v 140h 140a 140 140, 0, 0, 0, -140 -140" transform="rotate(90,648,3728)"/></clipPath></defs><rect x="0" y="0" height="4096" width="4096" clip-path="url('#clip-path-background-color-34')" fill="#ffffff" style="transform: scale(0.78) translate(577.641px, 905.846px);"/><rect x="0" y="0" height="4096" width="4096" clip-path="url('#clip-path-dot-color-34')" fill="#000000" style="transform: scale(0.78) translate(577.641px, 905.846px);"/><rect x="18" y="18" height="980" width="980" clip-path="url('#clip-path-corners-square-color-0-0-34')" fill="#000000" style="transform: scale(0.78) translate(577.641px, 905.846px);"/><rect x="298" y="298" height="420" width="420" clip-path="url('#clip-path-corners-dot-color-0-0-34')" fill="#000000" style="transform: scale(0.78) translate(577.641px, 905.846px);"/><rect x="3098" y="18" height="980" width="980" clip-path="url('#clip-path-corners-square-color-1-0-34')" fill="#000000" style="transform: scale(0.78) translate(577.641px, 905.846px);"/><rect x="3378" y="298" height="420" width="420" clip-path="url('#clip-path-corners-dot-color-1-0-34')" fill="#000000" style="transform: scale(0.78) translate(577.641px, 905.846px);"/><rect x="18" y="3098" height="980" width="980" clip-path="url('#clip-path-corners-square-color-0-1-34')" fill="#000000" style="transform: scale(0.78) translate(577.641px, 905.846px);"/><rect x="298" y="3378" height="420" width="420" clip-path="url('#clip-path-corners-dot-color-0-1-34')" fill="#000000" style="transform: scale(0.78) translate(577.641px, 905.846px);"/></svg>